<svg xmlns="http://www.w3.org/2000/svg" fill="none" viewBox="0 0 944 811">
	<style>
		#t {
			fill: #222
		}

		@media (prefers-color-scheme:dark) {
			#t {
				fill: #d1d2df
			}
		}
	</style>
	<path fill="#AB6248" d="M308 664.5c-59 68 10 53.5 64.5 53.5 46 0 101-14.3 129-13.5 35 1 39.5-23.5 104.5-19.5s59-24.5 82-38.5 25.9-12.92 36.5-27.5c8-11 9.5-6 13.5-8 4.75-2.38 11.42-7.8 10-11-2-4.5-9.5-10.5-15.5-14-24.74-14.43-45.5-15.5-105.5-42.5-2.05-.92-11.03-40.35-12.93-41.28-53.63-26.2-47.57-54.07-47.57-72.22 0-17.5 3.5-28.82 3.5-40 0-9 5-35 3-44 0-4.5-1-3 8-17 22.07-34.33 7-24 10-62s-18-66-31-66-7 9-16 0c-3.27-3.27-9.05-17.76-15.08-35.46-10.57-31.01-32.42-41.9-32.42-49.54 0-12-39-67-73-74s-72 1-92 0S282 48.5 259 59.5s-36 30-47 46-17.5 48.5-12.5 77.5 8.5 57 19.5 82c7.52 17.1 9.98 28.71 11.38 32.76.64 1.87-.22 2.56-3.38 2.24l-.31-.03c-9.86-.99-17.76-1.78-24.69 16.03-7 18 7 39 25 73s23 31 36 34 12-9 19-11 14 34 23 51 38 51 39 106c.3 16.57.15 23.88-1.82 27.87-4.58 9.25 7.05 20.12-34.18 67.63Z" />
	<path fill="#222" fill-rule="evenodd" clip-rule="evenodd" d="M528.95 165.62c-16.3-6-17.52-7.94-19.64-11.34-.58-.94-1.24-2-2.31-3.28-2.39-2.86-7.28-11.65-12.5-21.04-5.73-10.27-11.84-21.26-15.5-25.96-4.07-5.23-8.14-4.38-15.94-2.75-5.62 1.17-13.17 2.75-24.06 2.75-26 0-169 42-195 70-20.67 22.26-18.2 89.35-13.58 123.87-.48-1.49-1.98-3.77-4.07-6.95-3.48-5.32-8.6-13.13-13.35-23.92-11-25-18-52-23-81s1-72 12-88c2.4-3.5 4.77-7.4 7.23-11.44C218 72.1 228.03 55.59 246 47c8.57-4.1 18.82-11.4 29.33-18.89C293 15.51 311.46 2.37 324 3c6.76.34 16.05-.35 26.68-1.15C371.5.3 397.5-1.63 420 3c34 7 87 71 87 83 0 7.65 11.37 48.59 21.95 79.62Z" />
	<path fill="#D1D2DF" fill-rule="evenodd" clip-rule="evenodd" d="M155.9 735.74c49.65-20.41 73.65-30.28 126.1-90.74 27.6-31.8 43.16-38.45 51.8-42.15 4.3-1.83 6.9-2.94 8.4-6.04 4.63 8.43 8.23 21.56 10.8 31.19 4 15 18 41 38 38s100-19 126-38 74-64 87-99l4.37-11.85c2.12-5.77 3.95-10.77 5.58-15 1.93.96 3.95 1.9 6.05 2.85 34.32 15.45 60.8 26.3 82.03 35.02 15.88 6.53 28.84 11.84 39.97 16.98 10.95 5.05 27.57 10.1 44.19 15.16 22.85 6.95 45.7 13.9 53.81 20.84 5.69 4.87 15.83 14.2 26.8 24.3 16.05 14.76 33.89 31.17 42.2 37.7 10.9 8.56 15.13 22.58 19.3 36.38 1.19 3.94 2.37 7.85 3.7 11.62.92 2.6 2.09 5.47 3.34 8.53 6.92 16.98 16.15 39.6-3.34 51.47-23 14-330 51-395 47-46.26-2.85-212.05-5.19-316.42-6.66-42.28-.6-74.49-1.05-84.58-1.34-28-.8-7.78-53 0-58 7-4.5 13.7-5.7 19.9-8.26Z" />
	<path id="t" fill-rule="evenodd" clip-rule="evenodd" d="M703.54 291v-93.1h-22.5V291h22.5Zm14.13-93.1V291h22.5v-28.9h15.27c7.12 0 13.28-1.33 18.46-3.96A28.34 28.34 0 0 0 785.85 247c2.82-4.82 4.23-10.44 4.23-16.86 0-6.4-1.38-12-4.14-16.82A28.65 28.65 0 0 0 774.17 202c-5.06-2.73-11.07-4.1-18.04-4.1h-38.46Zm22.5 46.46h11.1c3.38 0 6.22-.59 8.5-1.77a12.17 12.17 0 0 0 5.22-4.95 15.34 15.34 0 0 0 1.77-7.5c0-2.88-.59-5.37-1.77-7.46a11.9 11.9 0 0 0-5.23-4.9c-2.3-1.16-5.13-1.74-8.5-1.74h-11.09v28.32Zm78.5 16.28v1.86h19.36v-1.86c0-2.7.38-4.97 1.14-6.82a14.57 14.57 0 0 1 3.36-5 30.4 30.4 0 0 1 5.69-4.18 40.48 40.48 0 0 0 7.59-5.73 23.06 23.06 0 0 0 5.09-7.32 23.53 23.53 0 0 0 1.82-9.55c0-5.48-1.4-10.12-4.19-13.9-2.78-3.8-6.62-6.65-11.5-8.6-4.84-1.93-10.39-2.9-16.63-2.9-5.7 0-10.91.98-15.64 2.95a25.57 25.57 0 0 0-11.4 9c-2.86 4.06-4.33 9.27-4.42 15.64h20.91a9.96 9.96 0 0 1 1.5-5.41 10.3 10.3 0 0 1 3.82-3.5 10.8 10.8 0 0 1 5.05-1.23c1.78 0 3.4.38 4.86 1.14a8.37 8.37 0 0 1 4.77 7.86c0 1.85-.44 3.5-1.32 4.95a16.59 16.59 0 0 1-3.59 4.1 48.07 48.07 0 0 1-5.09 3.68 29.37 29.37 0 0 0-6.09 5.14 18.41 18.41 0 0 0-3.82 7.36c-.85 3.06-1.27 7.17-1.27 12.32Zm1.64 28.22a11.54 11.54 0 0 0 8.4 3.46c2.1 0 4.02-.53 5.78-1.6a12.41 12.41 0 0 0 4.32-4.27 11.15 11.15 0 0 0-1.86-14.18 11.43 11.43 0 0 0-8.23-3.45c-3.28 0-6.08 1.15-8.41 3.45a10.98 10.98 0 0 0-3.41 8.23 11.23 11.23 0 0 0 3.4 8.36ZM22.55 521v-93.1H.05V521h22.5Zm14.12-93.1V521h22.5v-28.9h15.27c7.12 0 13.28-1.33 18.46-3.96A28.35 28.35 0 0 0 104.85 477c2.82-4.82 4.23-10.44 4.23-16.86 0-6.4-1.38-12-4.14-16.82A28.65 28.65 0 0 0 93.17 432c-5.06-2.73-11.08-4.1-18.05-4.1H36.67Zm22.5 46.46h11.1c3.39 0 6.22-.59 8.5-1.77a12.17 12.17 0 0 0 5.22-4.95 15.33 15.33 0 0 0 1.77-7.5c0-2.88-.59-5.37-1.77-7.46a11.9 11.9 0 0 0-5.23-4.9c-2.3-1.16-5.14-1.73-8.5-1.73H59.17v28.31Zm78.5 16.28v1.86h19.36v-1.86c0-2.7.38-4.97 1.14-6.82a14.57 14.57 0 0 1 3.36-5 30.4 30.4 0 0 1 5.69-4.18 40.48 40.48 0 0 0 7.59-5.73 23.06 23.06 0 0 0 5.09-7.32 23.53 23.53 0 0 0 1.82-9.54c0-5.49-1.4-10.13-4.19-13.91-2.78-3.8-6.62-6.65-11.5-8.6-4.84-1.93-10.39-2.9-16.63-2.9-5.7 0-10.91.98-15.64 2.95a25.57 25.57 0 0 0-11.4 9c-2.86 4.06-4.33 9.27-4.42 15.64h20.91a9.96 9.96 0 0 1 1.5-5.41 10.3 10.3 0 0 1 3.82-3.5 10.8 10.8 0 0 1 5.05-1.23c1.78 0 3.4.38 4.86 1.14a8.37 8.37 0 0 1 4.77 7.86c0 1.85-.44 3.5-1.32 4.96a16.59 16.59 0 0 1-3.59 4.09 48.07 48.07 0 0 1-5.09 3.68 29.37 29.37 0 0 0-6.09 5.13 18.41 18.41 0 0 0-3.82 7.37c-.84 3.06-1.27 7.17-1.27 12.32Zm1.64 28.22a11.54 11.54 0 0 0 8.4 3.46c2.1 0 4.02-.53 5.78-1.6a12.41 12.41 0 0 0 4.32-4.26 11.15 11.15 0 0 0-1.86-14.18 11.43 11.43 0 0 0-8.23-3.46c-3.28 0-6.08 1.15-8.41 3.45a10.98 10.98 0 0 0-3.41 8.23 11.23 11.23 0 0 0 3.4 8.36Z" />
</svg>
